<svg width="72" height="68" viewBox="0 0 72 68" fill="none" xmlns="http://www.w3.org/2000/svg">
<path d="M70.5938 0.81665H1.40625C0.629578 0.81665 0 1.44637 0 2.2229V65.7767C0 66.5532 0.629578 67.1829 1.40625 67.1829H15.0469C15.8235 67.1829 16.4531 66.5532 16.4531 65.7767C16.4531 65.0001 15.8235 64.3704 15.0469 64.3704H2.8125V13.747C2.85891 13.7516 2.90602 13.7542 2.95369 13.7542H69.1875V64.3704H66.6861V58.2947C66.6861 55.5493 64.9351 53.1244 62.3291 52.2611L57.3667 50.6166C57.9724 49.9039 58.4667 49.0945 58.8233 48.2144H63.002C63.7786 48.2144 64.4082 47.5847 64.4082 46.8082V42.8419C64.4082 35.2501 58.2318 29.0736 50.6399 29.0736C43.048 29.0736 36.8716 35.2501 36.8716 42.8419V46.8082C36.8716 47.5847 37.5012 48.2144 38.2778 48.2144H42.4565C42.8133 49.0945 43.3074 49.9039 43.9131 50.6166L38.9507 52.2611C36.3447 53.1244 34.5938 55.5492 34.5938 58.2946V64.3703H28.0529C27.2762 64.3703 26.6466 65 26.6466 65.7765C26.6466 66.5531 27.2762 67.1828 28.0529 67.1828H36H65.2798H70.5938C71.3704 67.1828 72 66.5531 72 65.7765V2.2229C72 1.44623 71.3704 0.81665 70.5938 0.81665ZM61.5957 45.4018H59.4533C59.4623 45.2385 59.4678 45.0743 59.4678 44.9088V42.9726C59.4678 42.9596 59.4668 42.9468 59.4668 42.9338H61.5957V45.4018ZM39.6841 45.4018V42.9338H41.813C41.813 42.9469 41.812 42.9597 41.812 42.9726V44.9088C41.812 45.0743 41.8175 45.2385 41.8265 45.4018H39.6841ZM42.2872 40.1212H40.0262C41.2391 35.3918 45.5376 31.8858 50.6399 31.8858C55.7422 31.8858 60.0407 35.3918 61.2536 40.1212H58.9926C57.8039 36.6489 54.5099 34.1446 50.6399 34.1446C46.7699 34.1446 43.4759 36.6489 42.2872 40.1212ZM50.6399 44.7385C49.8632 44.7385 49.2337 45.3682 49.2337 46.1447V47.5979C49.2337 48.3745 49.8632 49.0042 50.6399 49.0042H55.0403C54.7213 49.3468 54.3634 49.6525 53.9729 49.9133C53.8805 49.9583 53.7931 50.0133 53.7124 50.0776C52.8124 50.6145 51.7618 50.9242 50.6399 50.9242C49.518 50.9242 48.4675 50.6146 47.5677 50.0777C47.4868 50.0135 47.3993 49.9583 47.3067 49.9132C45.691 48.8335 44.6245 46.9935 44.6245 44.9088V42.9726C44.6245 39.6557 47.323 36.9573 50.6399 36.9573C53.9568 36.9573 56.6553 39.6557 56.6553 42.9726V44.9088C56.6553 45.3491 56.6063 45.778 56.5162 46.1917H52.0462V46.1447C52.0462 45.3682 51.4166 44.7385 50.6399 44.7385ZM63.8734 64.3703H37.4062V58.2946C37.4062 56.7639 38.3825 55.4121 39.8354 54.9306L46.5228 52.7143C47.753 53.3658 49.1536 53.7365 50.6399 53.7365C52.1262 53.7365 53.5268 53.3658 54.757 52.7143L61.4444 54.9306C62.8973 55.4121 63.8734 56.7639 63.8734 58.2946V64.3703ZM69.1875 10.9417H2.95369C2.90602 10.9417 2.85891 10.9442 2.8125 10.9488V3.62915H69.1875V10.9417Z" fill="#086CF9"/>
</svg>
