<svg width="72" height="72" viewBox="0 0 72 72" fill="none" xmlns="http://www.w3.org/2000/svg">
<path d="M21.4644 25.3049L25.9455 29.7858L35.9999 19.8815V23.989H40.2352V12.7053H28.9515V16.9406H32.9502L25.9679 23.8186L21.4644 19.3152L3.44885 37.3309L6.44363 40.3257L21.4644 25.3049Z" fill="#086CF9"/>
<path d="M12.7058 71.9994H21.1764C21.1764 70.6028 21.1764 48.0879 21.1764 46.5876H12.7058V71.9994Z" fill="#086CF9"/>
<path d="M25.4116 72.0006H33.8822C33.8822 70.6769 33.8822 44.3311 33.8822 42.3535H25.4116V72.0006Z" fill="#086CF9"/>
<path d="M72.0002 21.1765L64.059 10.5882L72.0002 0C70.5743 0 45.777 0 44.4708 0V38.1176H38.1179V72H55.059V38.1176H48.7061V21.1765H72.0002Z" fill="#086CF9"/>
<path d="M8.47059 50.8232H0V71.9997H8.47059C8.47059 71.0221 8.47059 51.7974 8.47059 50.8232Z" fill="#086CF9"/>
</svg>
